<svg width="60" height="60" viewBox="0 0 60 60" fill="none" xmlns="http://www.w3.org/2000/svg">
<g id="left-quote 1">
<g id="Group">
<path id="Vector" d="M24.1044 14.0522C25.6048 13.4229 26.2341 11.632 25.5564 10.18L23.1847 5.19454C22.5071 3.79135 20.8614 3.16164 19.4093 3.79135C15.2951 5.53384 11.7618 7.80875 8.95443 10.5677C5.51786 13.8101 3.19455 17.5371 1.93609 21.6513C0.677633 25.8144 0 31.477 0 38.6889V53.5485C0 55.1457 1.30686 56.4526 2.90414 56.4526H21.9263C23.5235 56.4526 24.8304 55.1457 24.8304 53.5485V34.5263C24.8304 32.9286 23.5235 31.6222 21.9263 31.6222H12.8266C12.9234 26.7331 14.0851 22.813 16.2148 19.86C17.9573 17.4892 20.571 15.5531 24.1044 14.0522Z" fill="#B19470"/>
<path id="Vector_2" d="M58.2764 14.0522C59.7769 13.4229 60.4056 11.632 59.7285 10.18L57.3568 5.24342C56.6791 3.83976 55.0335 3.21053 53.5814 3.83976C49.5156 5.58224 46.0301 7.85715 43.1749 10.5677C39.7378 13.859 37.3666 17.586 36.1077 21.7002C34.8492 25.7655 34.2205 31.4291 34.2205 38.6894V53.5489C34.2205 55.1462 35.5273 56.4531 37.1246 56.4531H56.1467C57.744 56.4531 59.0509 55.1462 59.0509 53.5489V34.5268C59.0509 32.9291 57.744 31.6227 56.1467 31.6227H46.9987C47.0955 26.7336 48.2576 22.8135 50.3868 19.8604C52.1293 17.4892 54.743 15.5531 58.2764 14.0522Z" fill="#B19470"/>
</g>
</g>
</svg>
